{"title":"WWE MONDAY NIGHT RAW - 18_7_11 Bzingaz","uid":6550711,"size":568920602,"categoryP":"video","categoryS":"tv_shows","magnet":"?xt=urn:btih:f8cd3a1627713086d688c7fadeed3d6fca82aa6a&amp;dn=WWE+MONDAY+NIGHT+RAW+-+18_7_11+Bzingaz&amp;tr=udp%3A%2F%2Ftracker.openbittorrent.com%3A80&amp;tr=udp%3A%2F%2Fopen.demonii.com%3A1337&amp;tr=udp%3A%2F%2Ftracker.coppersurfer.tk%3A6969&amp;tr=udp%3A%2F%2Fexodus.desync.com%3A6969","seeders":0,"leechers":1,"uploader":"bzingaz","files":12,"time":1311065323,"description":"WWE RAW 18th july 2011 in flv format in 12 parts!! please seed and comment.\n\nDetails of one of parts are:\n\n\nVideo\nFormat                           : AVC\nFormat/Info                      : Advanced Video Codec\nFormat profile                   : &lt;a class=&quot;__cf_email__&quot; href=&quot;/cdn-cgi/l/email-protection&quot; data-cfemail=&quot;d09db1b9be909ce3fee0&quot;&gt;[email&amp;#160;protected]&lt;/a&gt;&lt;script cf-hash='f9e31' type=&quot;text/javascript&quot;&gt;\n/* &lt;![CDATA[ */!function(){try{var t=&quot;currentScript&quot;in document?document.currentScript:function(){for(var t=document.getElementsByTagName(&quot;script&quot;),e=t.length;e--;)if(t[e].getAttribute(&quot;cf-hash&quot;))return t[e]}();if(t&amp;&amp;t.previousSibling){var e,r,n,i,c=t.previousSibling,a=c.getAttribute(&quot;data-cfemail&quot;);if(a){for(e=&quot;&quot;,r=parseInt(a.substr(0,2),16),n=2;a.length-n;n+=2)i=parseInt(a.substr(n,2),16)^r,e+=String.fromCharCode(i);e=document.createTextNode(e),c.parentNode.replaceChild(e,c)}}}catch(u){}}();/* ]]&gt; */&lt;/script&gt;\nFormat settings, CABAC           : Yes\nFormat settings, ReFrames        : 3 frames\nFormat settings, GOP             : M=1, N=60\nCodec ID                         : 7\nDuration                         : 14mn 8s\nBit rate                         : 651 Kbps\nWidth                            : 638 pixels\nHeight                           : 360 pixels\nDisplay aspect ratio             : 16:9\nFrame rate mode                  : Constant\nFrame rate                       : 29.918 fps\nColor space                      : YUV\nChroma subsampling               : 4:2:0\nBit depth                        : 8 bits\nScan type                        : Progressive\nBits/(Pixel*Frame)               : 0.095\nStream size                      : 65.8 MiB (83%)\n\nAudio\nFormat                           : AAC\nFormat/Info                      : Advanced Audio Codec\nFormat profile                   : LC\nCodec ID                         : 10\nDuration                         : 14mn 8s\nBit rate                         : 129 Kbps\nChannel(s)                       : 2 channels\nChannel positions                : Front: L R\nSampling rate                    : 44.1 KHz\nCompression mode                 : Lossy\nStream size                      : 13.0 MiB (16%)\n","torrent":{"xt":"urn:btih:f8cd3a1627713086d688c7fadeed3d6fca82aa6a","amp;dn":"WWE+MONDAY+NIGHT+RAW+-+18_7_11+Bzingaz","amp;tr":["udp%3A%2F%2Ftracker.openbittorrent.com%3A80","udp%3A%2F%2Fopen.demonii.com%3A1337","udp%3A%2F%2Ftracker.coppersurfer.tk%3A6969","udp%3A%2F%2Fexodus.desync.com%3A6969"],"infoHash":"f8cd3a1627713086d688c7fadeed3d6fca82aa6a","infoHashBuffer":{"type":"Buffer","data":[248,205,58,22,39,113,48,134,214,136,199,250,222,237,61,111,202,130,170,106]},"announce":[],"urlList":[]}}